<svg xmlns="http://www.w3.org/2000/svg" xmlns:xlink="http://www.w3.org/1999/xlink" version="1.1" x="0px" y="0px" viewBox="0 0 100 100" enable-background="new 0 0 100 100" xml:space="preserve"><path fill="#000000" d="M28.321,29.584c0,1.691-0.81,2.504-1.809,2.504c-0.999,0-1.809-0.814-1.809-2.504  c0-1.691,0.81-2.783,1.809-2.783C27.511,26.801,28.321,27.893,28.321,29.584z"></path><path fill="#000000" d="M59.176,29.584c0,1.691-0.81,2.504-1.809,2.504c-0.999,0-1.809-0.814-1.809-2.504  c0-1.691,0.81-2.783,1.809-2.783C58.366,26.801,59.176,27.893,59.176,29.584z"></path><path fill="#000000" d="M47.757,33.041c-0.222-0.212-0.574-0.203-0.785,0.019c-0.212,0.222-0.203,0.574,0.019,0.785  c0.446,0.424,0.702,1.328,0.366,1.857c-0.271,0.425-0.904,0.582-1.799,0.479l-2.34-0.639c-0.012-0.003-0.024-0.005-0.036-0.007  c-0.009-0.002-0.018-0.004-0.027-0.005c-0.025-0.004-0.049-0.006-0.074-0.006c-0.004,0-0.007-0.001-0.011-0.001  c-0.003,0-0.006,0-0.009,0c-0.007,0-0.014,0.001-0.021,0.002c-0.012,0.001-0.025,0.002-0.037,0.003  c-0.049,0.005-0.099,0.014-0.147,0.033c-0.01,0.004-0.019,0.007-0.029,0.011l-1.778,0.536c-1.148,0.225-1.959,0.092-2.276-0.405  c-0.337-0.529-0.08-1.432,0.366-1.857c0.222-0.212,0.23-0.563,0.019-0.785c-0.212-0.222-0.563-0.231-0.785-0.019  c-0.781,0.745-1.208,2.202-0.536,3.257c0.483,0.759,1.314,1.018,2.225,1.018c0.061,0,0.123-0.005,0.185-0.008  c0.096,1.163,0.539,3.806,2.59,3.977c0.143,0.012,0.283,0.018,0.415,0.018c0,0,0,0,0,0c1.092,0,1.881-0.425,2.342-1.263  c0.344-0.624,0.52-1.478,0.559-2.726c0.878-0.016,1.673-0.281,2.141-1.017C48.965,35.243,48.538,33.786,47.757,33.041z   M43.251,40.194c-0.102,0-0.21-0.005-0.323-0.014c-1.21-0.101-1.505-2.12-1.576-3.004l0.04-0.012  c0.605-0.126,1.185-0.313,1.673-0.495c0.57,0.213,1.267,0.431,1.979,0.551c-0.029,1.084-0.165,1.817-0.422,2.285  C44.433,39.846,44.124,40.194,43.251,40.194z"></path><path fill="#000000" d="M26.887,34.029"></path><path fill="#000000" d="M36.407,34.037c-0.149-0.084-3.736-2.052-10.223-0.489c-0.266,0.064-0.43,0.332-0.366,0.598  c0.064,0.266,0.331,0.43,0.598,0.366c3.413-0.822,5.98-0.604,7.58-0.251c-1.96,0.288-4.805,0.893-6.374,2.098  c-0.217,0.167-0.258,0.478-0.091,0.695c0.098,0.127,0.245,0.194,0.393,0.194c0.105,0,0.212-0.033,0.302-0.103  c2.26-1.736,7.881-2.127,7.938-2.131c0.18-0.012,0.33-0.12,0.407-0.27c0.007-0.011,0.017-0.02,0.024-0.031  C36.729,34.474,36.645,34.171,36.407,34.037z"></path><path fill="#000000" d="M60.083,33.548c-6.487-1.563-10.074,0.404-10.223,0.489c-0.238,0.135-0.322,0.437-0.187,0.675  c0.007,0.012,0.016,0.02,0.024,0.031c0.077,0.15,0.227,0.258,0.407,0.27c0.056,0.004,5.678,0.395,7.938,2.131  c0.09,0.069,0.196,0.103,0.301,0.103c0.149,0,0.296-0.067,0.393-0.194c0.167-0.217,0.126-0.528-0.091-0.695  c-1.573-1.208-4.429-1.813-6.389-2.1c1.594-0.354,4.16-0.574,7.596,0.253c0.264,0.064,0.534-0.099,0.598-0.366  C60.513,33.879,60.349,33.612,60.083,33.548z"></path><path fill="#000000" d="M90.246,41.072c-1.343-1.569-3.218-2.365-5.572-2.365c-0.611,0-1.261,0.055-1.933,0.165  c-4.487,0.729-7.515,3.813-8.756,8.917c-0.908,3.733-0.538,7.204-0.522,7.35l0.004,0.031c0.932,6.247,1.429,14.407-1.495,17.8  c-0.889,1.032-2.064,1.555-3.492,1.555c-0.301,0-0.599-0.024-0.889-0.063c-0.11-0.708-0.252-1.45-0.424-2.224h0  c2.735-0.687,4.609-2.138,5.574-4.321c2.089-4.723-0.761-11.591-2.407-14.88c1.378-2.514,1.671-5.491,0.839-8.682  c-0.617-2.366-1.653-4.106-1.919-4.53c0.116-1.819,0.165-5.622-0.917-9.932c-0.232-0.924-0.504-1.816-0.814-2.68  c2.264-2.615,3.905-5.486,4.864-8.506c0.424-1.241,0.695-2.451,0.813-3.62c0.056-0.419,0.101-0.84,0.132-1.262  c0.19-2.607-0.397-4.665-1.746-6.115C70.304,6.329,68.396,5.6,66.069,5.6c-3.028,0-6.466,1.22-9.432,3.347  c-1.507,1.08-2.798,2.334-3.839,3.701c-6.475-2.642-13.808-2.619-21.842,0.072c0.011-0.004,0.022-0.008,0.034-0.012  c-1.048-1.39-2.355-2.665-3.884-3.761C24.139,6.82,20.701,5.6,17.673,5.6c-2.327,0-4.235,0.729-5.517,2.108  c-1.348,1.451-1.936,3.508-1.746,6.115c0.031,0.423,0.076,0.844,0.132,1.263c0.118,1.169,0.389,2.379,0.813,3.62  c0.938,2.952,2.526,5.763,4.713,8.331c0,0,0,0,0,0c-0.296,0.84-0.558,1.709-0.782,2.61c-1.094,4.395-1.049,8.318-0.938,10.173  c0.179-0.122,0.364-0.239,0.553-0.35c-3.088,1.814-4.833,5.03-5.045,9.301c-0.156,3.141,0.564,5.731,0.594,5.84  c0.01,0.036,0.026,0.069,0.041,0.103c-1.591,3.598-3.396,9.178-1.616,13.201c0.955,2.161,2.803,3.604,5.495,4.299  c-0.748,2.506-1.247,6.31,0.834,9.853c1.463,2.49,3.953,4.425,7.443,5.8c-0.04,0.26-0.063,0.524-0.063,0.792  c0,3.413,3.324,5.533,8.674,5.533c4.381,0,7.401-1.422,8.353-3.811c0.055,0,0.109,0.001,0.164,0.001h0.009  c0.363,0,0.72-0.001,1.076-0.003c0.015,0,0.029,0,0.044,0c0.681,0,1.332-0.006,1.959-0.017c0.943,2.4,3.968,3.829,8.36,3.829  c5.35,0,8.674-2.12,8.674-5.533c0-0.083-0.004-0.165-0.008-0.247c2.694-0.888,4.737-2.148,6.072-3.924  c0.779-1.036,1.32-2.229,1.626-3.615c0.258,0.008,0.512,0.013,0.761,0.013c4.169,0,7.366-1.159,9.503-3.443  c4.212-4.503,3.68-12.449,3.212-19.461c-0.323-4.836-0.629-9.403,0.823-11.364c0.549-0.741,1.231-1.166,1.872-1.166  c0.447,0,0.85,0.211,1.136,0.593c0.522,0.698,0.6,1.845,0.214,3.146c-0.435,1.47-0.238,2.865,0.557,3.929  c0.681,0.912,1.739,1.457,2.831,1.457c2.261,0,3.378-1.998,3.67-3.867C92.778,46.795,92.061,43.191,90.246,41.072z M71.23,67.248  c-0.817,1.846-2.45,2.994-4.995,3.507c-0.008,0.002-0.016,0.003-0.024,0.005c-0.041,0.009-4.156,0.9-6.012-1.149  c-1.622-1.79-0.926-5.216-0.056-7.774c0.147-0.432-0.084-0.901-0.516-1.048c-0.433-0.147-0.901,0.084-1.048,0.516  c-0.062,0.184-0.121,0.365-0.178,0.544c-0.096-0.91-0.19-1.806-0.272-2.671c0.306-0.066,0.61-0.133,0.909-0.203  c6.149-1.43,8.946-3.086,10.207-4.385C70.781,57.861,72.883,63.511,71.23,67.248z M69.574,44.77  c0.827,3.169,0.427,5.954-1.187,8.279c-1.066,1.535-4.701,3.149-9.725,4.318c-0.222,0.052-0.45,0.101-0.676,0.151  c-0.148-2.003-0.174-3.749,0.088-4.96c0.675-3.117,0.775-5.655,0.297-7.669c3.272-0.952,6.541-2.167,9.798-3.645  C68.555,41.946,69.168,43.21,69.574,44.77z M71.57,14.826c-0.121,0.937-0.309,1.859-0.561,2.765  c-0.936,3.068-2.767,5.867-4.231,7.769c0,0,0,0,0,0c-1.021-2.281-2.335-4.321-3.928-6.096c0.956-2.896,2.562-5.19,4.796-6.837  c1.401-1.033,2.722-1.548,3.476-1.782C71.588,12.019,71.701,13.431,71.57,14.826z M66.069,7.252c1.295,0,3.093,0.274,4.308,1.581  c0.074,0.079,0.144,0.162,0.211,0.247c-0.884,0.278-2.319,0.852-3.848,1.964c-1.717,1.249-3.815,3.392-5.17,6.911  c-2.04-1.926-4.455-3.481-7.219-4.625C57.346,9.598,62.172,7.252,66.069,7.252z M13.366,8.833c1.215-1.307,3.013-1.581,4.308-1.581  c3.882,0,8.687,2.328,11.686,6.034c0.001,0,0.002-0.001,0.004-0.001c-0.025,0.009-0.05,0.018-0.075,0.027  c-2.759,1.038-5.172,2.514-7.212,4.391c-1.357-3.371-3.396-5.441-5.073-6.66c-1.529-1.112-2.964-1.686-3.848-1.964  C13.222,8.995,13.292,8.912,13.366,8.833z M12.895,18.105c-0.331-1.06-0.583-2.178-0.732-3.356  c-0.119-1.369-0.001-2.754,0.458-4.104c0.755,0.235,2.076,0.75,3.476,1.782c2.162,1.593,3.733,3.793,4.7,6.557c0,0,0,0,0,0  c-1.62,1.772-2.954,3.839-3.986,6.178c0,0,0,0,0,0C15.456,23.376,13.834,20.867,12.895,18.105z M16.889,30.046  c1.878-7.545,6.245-12.655,12.98-15.188c1.941-0.73,3.839-1.301,5.691-1.714c-0.173,1.757-0.615,7.7,1.342,7.7  c2.248,0,2.391-2.284,2.349-8.32c0.496-0.055,0.989-0.098,1.478-0.128c-0.214,2.151-0.791,9.701,1.679,9.701  c2.798,0,3.001-2.207,2.953-9.615c0.364,0.038,0.725,0.083,1.084,0.136c-0.037,5.878,0.129,8.107,2.35,8.107  c1.817,0,1.566-5.124,1.382-7.263c1.053,0.326,2.084,0.721,3.09,1.19c0.184,0.085,0.329,0.153,0.435,0.196  c6.762,2.794,11.142,7.973,13.019,15.392c1.026,4.056,0.985,7.714,0.882,9.442c-3.247,1.479-6.506,2.696-9.765,3.641  c-0.238-0.513-0.528-0.98-0.869-1.404c-1.576-1.956-4.249-2.949-7.944-2.953h-0.023c-3.758,0-6.462,0.949-8.036,2.822  c-1.213,1.443-1.423,3.058-1.424,3.996c-13.296-0.312-22.076-5.267-23.548-6.156C15.898,37.847,15.872,34.132,16.889,30.046z   M46.325,45.835c-0.646-0.736-1.513-1.108-2.578-1.108c-0.708,0-1.513,0.161-2.525,0.511c0.077-0.679,0.326-1.583,1.025-2.405  c1.249-1.469,3.523-2.214,6.757-2.214h0.021c3.172,0.003,5.413,0.79,6.66,2.338c1.475,1.831,1.729,4.857,0.777,9.251  c-0.498,2.298-0.11,5.97,0.301,9.857c0.616,5.824,1.314,12.424-0.912,14.929c-0.607,0.683-1.421,1.022-2.487,1.035  c-2.501,0.032-4.243-0.553-5.328-1.788c-2.513-2.861-1.874-9.529-0.779-17.951C48.149,51.426,47.862,47.585,46.325,45.835z   M15.991,39.627c-0.135-0.082-0.209-0.129-0.217-0.135C15.782,39.497,15.856,39.545,15.991,39.627z M15.322,41.155  c2.134,1.277,11.425,6.298,25.536,6.298c1.489,0,2.982-0.058,4.478-0.171c0.917,1.558,1.013,5.181,0.283,10.794  c-0.048,0.368-0.094,0.73-0.14,1.09c0-0.001,0-0.003,0-0.004c-1.789,0.102-3.6,0.157-5.411,0.157  c-11.102,0-21.064-1.95-28.111-5.497C11.571,52.132,10.194,44.592,15.322,41.155z M23.463,86.412  c-3.241-1.241-5.538-2.981-6.828-5.17c-1.812-3.075-1.296-6.503-0.619-8.71l0,0c0.403,0.048,0.904,0.089,1.459,0.089  c1.648,0,3.766-0.355,5.166-1.9c1.735-1.915,1.869-5.083,0.396-9.415c-0.147-0.432-0.616-0.663-1.048-0.516  c-0.432,0.147-0.663,0.616-0.516,1.048c0.869,2.556,1.565,5.98-0.053,7.771c-1.875,2.076-5.975,1.161-6.015,1.152  c-0.008-0.002-0.016-0.004-0.024-0.005c-2.544-0.513-4.177-1.66-4.994-3.505c-1.488-3.362,0.07-8.282,1.516-11.617c0,0,0,0,0,0  c5.136,2.451,11.646,4.114,18.933,4.872c-4.3,3.374-6.398,9.1-6.073,16.63c0.2,4.638,1.242,8.635,1.706,10.216  C25.392,87.077,24.387,86.766,23.463,86.412z M31.258,92.542c-6.516,0-7.022-2.971-7.022-3.882c0-0.075,0.003-0.15,0.008-0.224h0  c3.597,1.151,8.097,1.794,13.484,1.922C36.979,91.43,35.244,92.542,31.258,92.542z M43.664,88.695  c-0.905,0.018-1.844,0.029-2.818,0.034c-6.656-0.007-11.363-1.199-12.714-1.586c-0.833-2.779-5.246-19.187,4.338-25.795  c0.315-0.217,0.619-0.421,0.919-0.618c2.171,0.159,4.402,0.241,6.679,0.241c1.74,0,3.481-0.049,5.204-0.142  c-0.93,7.737-1.146,13.463,1.522,16.501c1.39,1.582,3.477,2.351,6.38,2.351c0.069,0,0.139,0,0.21-0.001  c0.394-0.005,0.769-0.044,1.124-0.117c0,0,0,0,0,0h0c-0.357,2.651-0.943,5.471-1.754,8.407  C51.615,88.152,48.521,88.572,43.664,88.695z M58.234,88.893c-0.096,1.099-0.974,3.648-7.011,3.648  c-4.023,0-5.754-1.133-6.491-2.214c0,0,0,0,0,0c5.631-0.139,10.318-0.564,13.965-1.557C58.545,88.813,58.391,88.853,58.234,88.893z   M64.641,83.496c-1.674,2.225-4.792,3.648-10.168,4.44c0.859-3.19,1.457-6.25,1.79-9.114c0,0,0,0,0,0  c0.298-0.207,0.573-0.45,0.823-0.732c1.433-1.613,1.91-4.242,1.941-7.317c0,0,0,0,0,0.001c1.401,1.499,3.487,1.847,5.114,1.847  c0.53,0,1.011-0.037,1.404-0.083C66.706,77.706,66.408,81.147,64.641,83.496z M90.534,50.456c-0.242,1.547-1.004,2.47-2.038,2.47  c-0.573,0-1.137-0.296-1.508-0.793c-0.475-0.636-0.581-1.514-0.297-2.471c0.543-1.832,0.374-3.467-0.474-4.604  c-0.596-0.799-1.493-1.257-2.46-1.257c-1.187,0-2.323,0.652-3.199,1.835c-1.813,2.449-1.503,7.087-1.144,12.457  c0.446,6.676,0.952,14.243-2.77,18.222c-1.838,1.965-4.552,2.92-8.297,2.92c-0.169,0-0.342-0.003-0.516-0.007  c0.079-0.946,0.068-1.971-0.032-3.083c0.224,0.019,0.451,0.03,0.681,0.03c1.93,0,3.526-0.716,4.743-2.128  c2.674-3.103,3.307-9.53,1.88-19.104c-0.024-0.232-0.326-3.423,0.487-6.765c1.087-4.471,3.582-7.054,7.415-7.677  c2.654-0.431,4.683,0.123,5.985,1.644C90.496,43.903,91.073,47.01,90.534,50.456z"></path></svg>