<svg xmlns="http://www.w3.org/2000/svg" xmlns:xlink="http://www.w3.org/1999/xlink" version="1.1" x="0px" y="0px" viewBox="0 0 100 100" enable-background="new 0 0 100 100" xml:space="preserve"><path fill="#000000" d="M66.008,55.361c-0.913-0.77-2.735,0.632-2.94,1.695c-0.206,1.063,0.823,2.315,1.843,2.315  s1.847-0.996,1.847-2.224C66.757,56.415,66.757,55.993,66.008,55.361z M65.469,56.862c-0.258,0-0.468-0.21-0.468-0.468  c0-0.258,0.21-0.468,0.468-0.468c0.258,0,0.468,0.21,0.468,0.468C65.937,56.653,65.727,56.862,65.469,56.862z"></path><path fill="#000000" d="M36.365,57.056c-0.206-1.063-2.027-2.465-2.94-1.695c-0.75,0.632-0.75,1.053-0.75,1.786  c0,1.229,0.827,2.224,1.847,2.224C35.542,59.372,36.57,58.119,36.365,57.056z M33.885,56.862c-0.258,0-0.468-0.21-0.468-0.468  c0-0.258,0.21-0.468,0.468-0.468c0.258,0,0.468,0.21,0.468,0.468C34.353,56.653,34.143,56.862,33.885,56.862z"></path><path fill="#000000" d="M94.721,56.413c-1.064-3.83-3.207-7.5-6.033-10.335c-2.542-2.55-5.28-4.073-7.325-4.073  c-0.11,0-0.216,0.006-0.321,0.015c-0.414-0.41-1.306-0.812-2.093-0.795c-0.479,0.013-0.873,0.18-1.14,0.483  c-0.669,0.76-0.009,1.674,0.385,2.221c0.096,0.133,0.187,0.259,0.245,0.358c0.009,0.016,0.023,0.028,0.034,0.043  c-0.041,0.199-0.071,0.408-0.083,0.629c-0.161,2.868-2.143,4.326-3.764,5.043c0.005,0.18,0.008,0.36,0.008,0.541  c0-3.354-0.774-6.568-2.245-9.485c0.637-0.831,1.313-1.849,1.907-3.03c1.617-3.22,2.889-8.292-0.231-14.164l-0.158-0.297  l-0.311-0.13c-0.094-0.04-2.338-0.968-5.324-0.968c-3.397,0-7.866,1.194-11.035,6.461h0c-2.373-0.696-4.84-1.064-7.296-1.064  c-2.351,0-4.647,0.299-6.834,0.876l0,0c-3.162-5.105-7.562-6.273-10.918-6.273c-2.986,0-5.229,0.928-5.324,0.968l-0.31,0.13  l-0.158,0.297c-3.121,5.872-1.848,10.943-0.231,14.164c0.541,1.076,1.15,2.017,1.736,2.805c0.066-0.129,0.134-0.26,0.204-0.39  c-1.608,3.017-2.59,6.422-2.855,10.031c0.01-0.143,0.024-0.284,0.037-0.426c-1.562-0.798-3.37-2.311-3.441-5.056  c-0.006-0.221-0.029-0.43-0.065-0.63c0.012-0.015,0.026-0.027,0.036-0.043c0.062-0.098,0.156-0.221,0.256-0.351  c0.41-0.534,1.098-1.429,0.452-2.208c-0.257-0.311-0.646-0.49-1.125-0.517c-0.791-0.044-1.694,0.335-2.119,0.733  c-0.144-0.017-0.291-0.029-0.445-0.029c-3.795,0-11.004,5.453-13.66,13.998c-0.103,0.331-0.014,0.69,0.227,0.938  c0.241,0.248,0.601,0.344,0.934,0.251c0.005-0.001,0.532-0.146,1.263-0.146c2.489,0,4.052,1.512,4.646,4.493  c0.059,0.295,0.255,0.545,0.528,0.672c0.273,0.127,0.59,0.116,0.854-0.029c0.013-0.007,1.403-0.744,3.137-0.744  c1.55,0,2.906,0.582,4.03,1.728c0.445,0.454,0.949,0.684,1.497,0.684c0.739,0,1.338-0.405,1.972-0.834  c0.69-0.466,1.403-0.948,2.339-0.948c0.198,0,0.405,0.023,0.618,0.067c0.789,1.606,1.805,3.082,3.047,4.418  c1.664,1.791,3.696,3.277,6.027,4.434c-0.522,4.107,0.443,6.577,2.892,7.362c0.837,0.268,1.56,0.398,2.21,0.399h0.001  c2.456,0,3.674-1.682,4.761-5.03c0,0-0.001,0-0.001,0c1.226,0.126,2.489,0.19,3.784,0.19c1.125,0,2.231-0.059,3.316-0.173  c1.086,3.337,2.304,5.013,4.756,5.013c0.65,0,1.373-0.13,2.21-0.399c2.48-0.794,3.438-3.319,2.871-7.521  c1.554-0.823,2.985-1.801,4.264-2.929c1.898-1.673,3.438-3.631,4.605-5.831v0c0.378-0.122,0.736-0.187,1.07-0.187  c0.979,0,1.698,0.518,2.394,1.02c0.61,0.44,1.24,0.894,2.004,0.894h0c0.527,0,1.018-0.215,1.459-0.639  c1.111-1.067,2.422-1.608,3.895-1.608c1.827,0,3.287,0.835,3.299,0.842c0.259,0.153,0.576,0.174,0.853,0.055  c0.277-0.119,0.48-0.362,0.548-0.656c0.667-2.888,2.219-4.352,4.613-4.352c0.818,0,1.42,0.185,1.422,0.186  c0.331,0.106,0.694,0.023,0.945-0.218C94.715,57.107,94.814,56.748,94.721,56.413z M21.337,42.373  c0.089,0.005,0.247,0.026,0.316,0.103c0.018,0.152-0.33,0.606-0.479,0.799c-0.09,0.118-0.174,0.23-0.25,0.34l-0.856-0.824  C20.284,42.599,20.867,42.347,21.337,42.373z M18.837,43.836c0.654,0,1.095,0.205,1.121,1.203c0.01,0.398,0.051,0.777,0.113,1.139  c-0.375-0.104-0.773-0.153-1.194-0.142c-2.213,0.046-4.999,1.69-8.282,4.886c-0.902,0.878-1.712,1.749-2.376,2.498  C11.188,47.407,16.433,43.836,18.837,43.836z M13.418,58.921c-0.516-1.154-1.231-2.064-2.145-2.713  c-0.862-0.612-1.901-0.978-3.031-1.079c0.741-0.881,1.853-2.14,3.143-3.396c3.027-2.947,5.625-4.525,7.514-4.565  c0.588-0.015,1.106,0.125,1.563,0.418c0.297,0.755,0.709,1.415,1.191,1.989C19.55,50.281,15.736,52.429,13.418,58.921z   M21.708,61.372c-1.396-1.233-3.092-1.883-4.943-1.883c-0.941,0-1.789,0.166-2.466,0.36c1.484-4.468,3.692-6.788,5.35-7.961  c1.191-0.843,2.26-1.223,2.915-1.392c0.668,0.576,1.402,1.032,2.124,1.38C23.736,53.245,22.197,56.189,21.708,61.372z   M23.207,61.391c-0.119,0.08-0.253,0.171-0.384,0.254c0.381-4.25,1.5-6.926,2.357-8.409v0c0.059,2.487,0.466,4.787,1.218,6.89  C24.99,60.188,23.965,60.879,23.207,61.391z M78.979,42.358c0.01,0,0.021,0,0.031,0c0.465,0,1.018,0.262,1.223,0.457l-0.88,0.798  c-0.073-0.113-0.153-0.228-0.239-0.348c-0.143-0.198-0.477-0.662-0.454-0.809C78.731,42.376,78.89,42.36,78.979,42.358z   M71.285,38.558c-1.434-2.147-3.793-4.319-4.807-5.208c0.746-2.01,2.557-3.027,5.394-3.027c0.724,0,1.353,0.073,1.762,0.136  C74.713,33.965,72.541,37.11,71.285,38.558z M59.087,29.546c2.721-4.213,6.384-5.189,9.185-5.189c1.996,0,3.634,0.484,4.287,0.708  c0.59,1.168,1.009,2.338,1.261,3.51c-0.483-0.071-1.166-0.143-1.948-0.143c-3.546,0-6.022,1.439-7.087,4.071  C63.022,31.293,61.1,30.299,59.087,29.546L59.087,29.546z M27.902,25.066c0.654-0.225,2.292-0.708,4.287-0.708  c4.418,0,7.243,2.311,9.03,4.96h0c-2.028,0.706-3.939,1.663-5.688,2.85c-1.135-2.419-3.549-3.735-6.942-3.735  c-0.782,0-1.465,0.072-1.948,0.143C26.893,27.404,27.313,26.233,27.902,25.066z M26.827,30.458c0.409-0.063,1.039-0.136,1.762-0.136  c2.824,0,4.631,1.009,5.383,3l0,0c-0.298,0.241-0.59,0.488-0.876,0.744c-1.853,1.656-3.704,4.168-3.92,4.492  C27.92,37.11,25.748,33.965,26.827,30.458z M41.397,76.8c-0.451,0-0.986-0.101-1.634-0.309c-1.047-0.335-1.993-1.498-1.676-4.76l0,0  c1.9,0.762,3.967,1.324,6.168,1.677C43.441,75.844,42.678,76.8,41.397,76.8z M59.647,76.491c-0.648,0.208-1.183,0.309-1.634,0.309  c-1.28,0-2.042-0.954-2.856-3.384c2.175-0.37,4.242-0.972,6.155-1.794C61.661,74.967,60.705,76.152,59.647,76.491z M66.109,66.424  c-4.05,3.57-9.792,5.536-16.168,5.536c-7.748,0-14.243-2.398-18.288-6.751c-3.438-3.699-4.958-8.611-4.518-14.597  c0.447-6.08,2.944-11.313,7.221-15.136c4.128-3.689,9.663-5.721,15.585-5.721c5.639,0,11.338,2.086,15.634,5.724  c4.623,3.915,7.17,9.264,7.17,15.063C72.744,57.106,70.45,62.598,66.109,66.424z M76.533,61.311  c-0.806-0.581-1.91-1.377-3.499-1.377c-0.036,0-0.073,0.002-0.11,0.002c0.894-2.234,1.444-4.676,1.634-7.294l0,0  c0.831,1.377,2.073,4.184,2.352,8.933C76.778,61.487,76.645,61.391,76.533,61.311z M82.786,59.6c-1.781,0-3.377,0.584-4.755,1.735  c-0.332-5.194-1.78-8.183-2.691-9.581c0.732-0.326,1.48-0.76,2.166-1.316c1.626,0.474,5.823,2.375,7.978,9.601  C84.756,59.806,83.825,59.6,82.786,59.6z M86.39,59.131c-2.12-6.553-5.865-8.815-7.945-9.584c0.5-0.559,0.931-1.206,1.251-1.952  c0.464-0.277,0.983-0.4,1.574-0.37c3.605,0.184,8.409,5.753,10.408,8.277C90.075,55.596,87.765,56.277,86.39,59.131z M81.327,46.093  c-0.42-0.021-0.82,0.016-1.199,0.11c0.074-0.362,0.126-0.74,0.148-1.139c0.054-0.971,0.474-1.169,1.086-1.169  c2.411,0,7.59,3.694,10.403,9.909C89.365,50.915,84.965,46.279,81.327,46.093z"></path><path fill="#000000" d="M55.307,63.506c-0.013-0.223-0.208-0.395-0.426-0.379c-0.223,0.013-0.392,0.203-0.379,0.426  c0.024,0.413-0.138,0.727-0.496,0.959c-0.361,0.235-0.884,0.355-1.437,0.363c-0.004,0-0.008-0.001-0.012-0.001  c-0.062,0.002-0.121,0-0.181-0.001c-0.252-0.008-0.508-0.038-0.756-0.092c-0.974-0.241-1.461-0.869-1.564-1.018  c-0.014-0.042-0.026-0.085-0.032-0.13c-0.002-0.036-0.006-0.072-0.01-0.108c-0.025-0.216-0.213-0.376-0.432-0.357  c-0.217,0.017-0.381,0.202-0.372,0.419c0.002,0.041,0.005,0.082,0.01,0.122c0.008,0.177-0.021,0.332-0.085,0.469  c-0.093,0.151-0.202,0.274-0.322,0.37c-0.023,0.016-0.045,0.033-0.069,0.048c-0.358,0.218-0.884,0.311-1.43,0.291  c-0.021-0.003-0.038-0.006-0.043-0.007c-0.041-0.008-0.083-0.007-0.124-0.002c-0.567-0.044-1.139-0.208-1.552-0.484  c-0.39-0.26-0.562-0.561-0.511-0.894c0.034-0.22-0.117-0.426-0.337-0.46c-0.217-0.035-0.426,0.117-0.46,0.337  c-0.1,0.651,0.206,1.251,0.861,1.688c0.066,0.044,0.137,0.085,0.208,0.125c-0.187,0.446,0.053,0.981,0.232,1.379  c0.042,0.093,0.08,0.178,0.106,0.249c0.058,0.161,0.21,0.267,0.38,0.267c0.003,0,0.006,0,0.008,0  c0.376-0.008,0.693-0.141,0.934-0.384c0.355,1.094,1.142,2.039,2.431,2.282c0.149,0.028,0.297,0.042,0.444,0.042  c0.554,0,1.097-0.196,1.589-0.579c0.556-0.432,1.009-1.087,1.267-1.789c0.246,0.27,0.577,0.42,0.975,0.428c0.003,0,0.006,0,0.008,0  c0.17,0,0.322-0.107,0.38-0.267c0.025-0.071,0.064-0.156,0.106-0.249c0.179-0.399,0.42-0.936,0.23-1.383  C55.041,64.8,55.347,64.203,55.307,63.506z M46.188,66.245c-0.07-0.196-0.279-0.547-0.24-0.789c0.275,0.096,0.566,0.164,0.86,0.204  c0.001,0.013,0.002,0.025,0.004,0.038C46.728,66,46.54,66.238,46.188,66.245z M50.985,67.81c-0.304,0.236-0.793,0.494-1.389,0.382  c-1.293-0.244-1.855-1.4-1.974-2.471c0.008,0,0.015,0,0.022,0c0.524,0,1.169-0.132,1.686-0.549c0.169-0.127,0.31-0.274,0.418-0.438  c0.181,0.177,0.404,0.336,0.667,0.472c0.26,0.134,0.562,0.244,0.884,0.325c0.26,0.074,0.545,0.127,0.861,0.145  C52.074,66.467,51.601,67.331,50.985,67.81z M53.614,66.245c-0.367-0.007-0.554-0.265-0.633-0.583  c0.303-0.03,0.598-0.093,0.873-0.19C53.883,65.714,53.683,66.053,53.614,66.245z"></path></svg>